<?xml version="1.0" standalone="no"?>
<!DOCTYPE svg PUBLIC "-//W3C//DTD SVG 20010904//EN"
 "http://www.w3.org/TR/2001/REC-SVG-20010904/DTD/svg10.dtd">
<svg version="1.0" xmlns="http://www.w3.org/2000/svg"
 width="512.000000pt" height="512.000000pt" viewBox="0 0 512.000000 512.000000"
 preserveAspectRatio="xMidYMid meet">
<metadata>
Created by potrace 1.14, written by Peter Selinger 2001-2017
</metadata>
<g transform="translate(0.000000,512.000000) scale(0.100000,-0.100000)"
fill="#000000" stroke="none">
<path d="M2450 4984 c-85 -13 -189 -50 -246 -87 -22 -14 -219 -128 -439 -255
-220 -126 -416 -239 -435 -250 -19 -12 -46 -27 -60 -35 -166 -90 -617 -359
-655 -390 -60 -49 -127 -126 -166 -194 -30 -51 -73 -172 -84 -237 -4 -22 -7
-463 -7 -980 1 -1025 0 -1012 58 -1143 44 -101 132 -213 217 -277 25 -19 573
-339 767 -448 19 -11 91 -53 160 -93 69 -40 215 -124 325 -187 110 -64 220
-127 245 -142 92 -53 177 -94 229 -110 174 -51 354 -36 512 44 43 22 364 206
889 510 140 81 271 157 290 168 161 91 408 237 429 253 51 40 114 104 150 154
79 106 136 275 129 381 -3 45 -5 49 -30 52 -31 4 -32 -1 -43 -103 -20 -181
-125 -347 -283 -449 -37 -24 -141 -86 -232 -138 -91 -52 -313 -180 -495 -285
-181 -105 -346 -200 -365 -211 -19 -11 -118 -68 -220 -127 -278 -162 -325
-183 -435 -201 -102 -16 -216 -4 -315 32 -25 9 -162 85 -305 167 -143 83 -307
177 -365 210 -58 33 -118 68 -135 77 -342 197 -554 321 -613 356 -40 24 -75
44 -77 44 -3 0 -46 25 -95 56 -151 93 -245 208 -293 359 l-22 70 0 985 0 985
22 70 c40 125 133 253 238 325 22 15 189 113 370 217 182 105 344 199 362 209
17 11 62 37 100 58 37 22 183 106 323 187 140 80 272 156 292 167 20 12 54 32
75 45 139 86 295 118 448 91 105 -18 145 -38 455 -216 157 -91 494 -285 750
-433 256 -147 495 -287 531 -310 121 -78 216 -200 262 -335 22 -65 22 -70 25
-865 3 -810 3 -815 37 -815 37 0 36 -6 36 781 0 420 -3 782 -6 804 -24 161
-104 311 -224 420 -65 59 -9 25 -676 410 -198 114 -493 284 -655 378 -162 94
-326 185 -365 202 -119 54 -250 71 -385 49z"/>
<path d="M1272 4951 c-17 -10 -18 -28 -8 -151 12 -157 16 -170 46 -170 23 0
43 33 36 58 -4 15 -8 54 -20 225 -3 38 -28 55 -54 38z"/>
<path d="M3812 4952 c-15 -10 -18 -28 -27 -142 -3 -47 -8 -98 -10 -115 -1 -16
1 -38 7 -48 14 -26 50 -18 58 14 8 28 24 220 21 257 -2 41 -19 52 -49 34z"/>
<path d="M382 4438 c-28 -28 -11 -47 110 -125 67 -43 129 -76 137 -75 35 8 34
45 -3 72 -35 26 -219 140 -226 140 -3 0 -11 -5 -18 -12z"/>
<path d="M4590 4373 c-119 -76 -141 -101 -114 -128 18 -18 18 -18 167 78 105
68 127 94 95 114 -24 14 -33 10 -148 -64z"/>
<path d="M2475 4036 c-90 -22 -168 -76 -201 -138 -37 -72 -19 -171 42 -232
162 -160 499 -94 544 107 11 49 11 62 -4 101 -49 128 -219 200 -381 162z"/>
<path d="M4385 3654 c-44 -25 -98 -56 -120 -69 -22 -12 -134 -77 -248 -144
-115 -66 -211 -121 -213 -121 -2 0 -21 -11 -42 -24 -35 -23 -959 -556 -1052
-608 -25 -14 -68 -39 -97 -57 l-51 -31 -219 126 c-120 70 -232 135 -248 144
-28 16 -1049 605 -1313 757 -64 37 -119 63 -127 59 -25 -9 -29 -36 -9 -56 10
-10 435 -257 944 -550 509 -294 927 -535 930 -537 3 -3 6 -494 6 -1091 1 -598
2 -1090 3 -1093 2 -13 33 -19 49 -10 16 9 17 93 17 1097 l0 1087 25 18 c14 10
439 257 945 548 506 292 926 540 933 550 11 16 10 21 -3 35 -9 9 -19 16 -23
16 -4 0 -43 -21 -87 -46z"/>
<path d="M4133 2886 c-190 -60 -304 -322 -206 -474 109 -167 384 -72 462 161
71 211 -62 373 -256 313z"/>
<path d="M1020 2678 c-26 -14 -57 -43 -75 -69 -55 -81 -40 -225 34 -333 91
-132 254 -187 358 -119 199 129 50 516 -208 539 -55 5 -70 2 -109 -18z"/>
<path d="M3616 2205 c-90 -34 -191 -145 -218 -238 -31 -110 -3 -229 68 -283
34 -27 44 -29 118 -28 69 0 88 4 127 27 135 79 217 252 182 387 -15 59 -35 89
-82 121 -42 29 -137 36 -195 14z"/>
<path d="M1670 1737 c-91 -23 -144 -105 -143 -220 1 -160 145 -330 293 -345
152 -14 250 108 219 275 -34 182 -221 329 -369 290z"/>
<path d="M3178 1545 c-2 -2 -16 -6 -31 -9 -84 -15 -182 -97 -230 -192 -63
-126 -49 -256 36 -331 132 -116 383 19 433 233 31 134 -26 265 -126 288 -43
10 -78 14 -82 11z"/>
</g>
</svg>
